ply
format ascii 1.0
comment Created by Blender 2.82 (sub 7) - www.blender.org, source file: 'particle-32x16-low.blend'
element vertex 497
property float x
property float y
property float z
property uchar red
property uchar green
property uchar blue
property uchar alpha
element face 512
property list uchar uint vertex_indices
end_header
0.000000 0.195090 -0.980785 255 0 45 255
0.000000 0.382683 -0.923880 255 0 45 255
0.074658 0.375330 -0.923880 255 0 45 255
0.038060 0.191341 -0.980785 255 0 45 255
0.000000 1.000000 0.000000 255 0 45 255
0.000000 0.980785 0.195090 255 0 45 255
0.191342 0.961940 0.195090 255 0 45 255
0.195090 0.980785 0.000000 255 0 45 255
0.000000 0.195090 0.980785 255 0 45 255
-0.000000 -0.000001 1.000000 255 0 45 255
0.038060 0.191342 0.980785 255 0 45 255
0.000000 -0.000000 -1.000000 255 0 45 255
0.000000 0.980785 -0.195090 255 0 45 255
0.191342 0.961940 -0.195090 255 0 45 255
0.000000 0.382683 0.923880 255 0 45 255
0.074658 0.375330 0.923880 255 0 45 255
0.000000 0.923879 -0.382683 255 0 45 255
0.180240 0.906127 -0.382683 255 0 45 255
0.000000 0.555570 0.831470 255 0 45 255
0.108386 0.544895 0.831470 255 0 45 255
0.000000 0.831469 -0.555570 255 0 45 255
0.162212 0.815493 -0.555570 255 0 45 255
0.000000 0.707107 0.707107 255 2 45 255
0.137950 0.693520 0.707107 255 0 45 255
0.000000 0.707106 -0.707107 255 0 45 255
0.137950 0.693520 -0.707107 255 0 45 255
0.000000 0.831470 0.555570 255 2 45 255
0.162212 0.815493 0.555570 255 1 45 255
0.000000 0.555570 -0.831470 255 0 45 255
0.108386 0.544895 -0.831470 255 0 45 255
0.000000 0.923880 0.382683 255 0 45 255
0.180240 0.906127 0.382683 255 0 45 255
0.212608 0.513280 -0.831470 255 0 45 255
0.146447 0.353553 -0.923880 255 0 45 255
0.353553 0.853553 0.382683 255 0 45 255
0.375330 0.906127 0.195090 255 0 45 255
0.074658 0.180240 -0.980785 255 0 45 255
0.382684 0.923879 0.000000 255 0 45 255
0.074658 0.180240 0.980785 255 0 45 255
0.375330 0.906127 -0.195090 255 0 45 255
0.146447 0.353553 0.923880 255 0 45 255
0.353554 0.853553 -0.382683 255 0 45 255
0.212608 0.513280 0.831470 255 0 45 255
0.318190 0.768178 -0.555570 255 0 45 255
0.270598 0.653281 0.707107 255 0 45 255
0.270598 0.653281 -0.707107 255 0 45 255
0.318190 0.768178 0.555570 255 0 45 255
0.212608 0.318190 0.923880 255 0 45 255
0.308658 0.461940 0.831470 255 0 45 255
0.513280 0.768178 -0.382683 255 0 45 255
0.461940 0.691342 -0.555570 255 0 45 255
0.392848 0.587938 0.707107 255 0 45 255
0.392848 0.587938 -0.707107 255 0 45 255
0.461940 0.691342 0.555570 255 0 45 255
0.308658 0.461940 -0.831470 255 0 45 255
0.513280 0.768178 0.382683 255 0 45 255
0.212608 0.318189 -0.923880 255 0 45 255
0.544895 0.815493 0.195090 255 0 45 255
0.108386 0.162211 -0.980785 255 0 45 255
0.555570 0.831469 0.000000 255 0 45 255
0.108387 0.162212 0.980785 255 0 45 255
0.544895 0.815493 -0.195090 255 0 45 255
0.653282 0.653281 0.382683 255 0 45 255
0.693520 0.693520 0.195090 255 0 45 255
0.270598 0.270598 -0.923880 255 0 45 255
0.137950 0.137949 -0.980785 255 0 45 255
0.707107 0.707107 0.000000 255 0 45 255
0.137950 0.137950 0.980785 255 0 45 255
0.693520 0.693520 -0.195090 255 0 45 255
0.270598 0.270598 0.923880 255 0 45 255
0.653282 0.653281 -0.382683 255 0 45 255
0.392848 0.392847 0.831470 255 0 45 255
0.587938 0.587938 -0.555570 255 0 45 255
0.500000 0.500000 0.707107 255 0 45 255
0.500000 0.500000 -0.707107 255 0 45 255
0.587938 0.587938 0.555570 255 0 45 255
0.392848 0.392847 -0.831470 255 0 45 255
0.768178 0.513280 -0.382683 255 0 45 255
0.691342 0.461940 -0.555570 255 0 45 255
0.461940 0.308658 0.831470 255 0 45 255
0.587938 0.392847 0.707107 255 0 45 255
0.587938 0.392847 -0.707107 255 0 45 255
0.691342 0.461940 0.555570 255 0 45 255
0.461940 0.308658 -0.831470 255 0 45 255
0.768178 0.513280 0.382683 255 0 45 255
0.318190 0.212607 -0.923880 255 0 45 255
0.815493 0.544895 0.195090 255 0 45 255
0.162212 0.108386 -0.980785 255 0 45 255
0.831470 0.555570 0.000000 255 0 45 255
0.162212 0.108386 0.980785 255 0 45 255
0.815493 0.544895 -0.195090 255 0 45 255
0.318190 0.212607 0.923880 255 0 45 255
0.353554 0.146446 -0.923880 255 0 45 255
0.180240 0.074658 -0.980785 255 0 45 255
0.906128 0.375330 0.195090 255 0 45 255
0.923880 0.382683 0.000000 255 0 45 255
0.180240 0.074658 0.980785 255 0 45 255
0.906128 0.375330 -0.195090 255 0 45 255
0.353554 0.146446 0.923880 255 0 45 255
0.853554 0.353553 -0.382683 255 0 45 255
0.513280 0.212607 0.831470 255 0 45 255
0.768178 0.318189 -0.555570 255 0 45 255
0.653282 0.270598 0.707107 255 0 45 255
0.653282 0.270598 -0.707107 255 0 45 255
0.768178 0.318189 0.555570 255 0 45 255
0.513280 0.212607 -0.831470 255 0 45 255
0.853554 0.353553 0.382683 255 0 45 255
0.544895 0.108386 0.831470 255 0 45 255
0.693520 0.137949 0.707107 255 0 45 255
0.815493 0.162211 -0.555570 255 0 45 255
0.693520 0.137949 -0.707107 255 0 45 255
0.815493 0.162211 0.555570 255 0 45 255
0.544895 0.108386 -0.831470 255 0 45 255
0.906128 0.180240 0.382683 255 0 45 255
0.375330 0.074658 -0.923880 255 0 45 255
0.961940 0.191341 0.195090 255 0 45 255
0.191342 0.038060 -0.980785 255 0 45 255
0.980785 0.195090 0.000000 255 0 45 255
0.191342 0.038060 0.980785 255 0 45 255
0.961940 0.191341 -0.195090 255 0 45 255
0.375331 0.074658 0.923880 255 0 45 255
0.906128 0.180240 -0.382683 255 0 45 255
0.980785 -0.000000 0.195090 255 0 45 255
1.000000 -0.000000 0.000000 255 0 45 255
0.195091 -0.000000 0.980785 255 0 45 255
0.195090 -0.000000 -0.980785 255 0 45 255
0.980785 -0.000000 -0.195090 255 0 45 255
0.382684 -0.000000 0.923880 255 0 45 255
0.923880 -0.000000 -0.382683 255 0 45 255
0.555570 -0.000000 0.831470 255 0 45 255
0.831470 -0.000000 -0.555570 255 0 45 255
0.707107 -0.000000 0.707107 255 0 45 255
0.707107 -0.000000 -0.707107 255 0 45 255
0.831470 -0.000000 0.555570 255 0 45 255
0.555570 -0.000000 -0.831470 255 0 45 255
0.923880 -0.000000 0.382683 255 0 45 255
0.382684 -0.000000 -0.923880 255 0 45 255
0.815493 -0.162212 -0.555570 255 0 45 255
0.693520 -0.137950 -0.707107 255 0 45 255
0.693520 -0.137950 0.707107 255 0 45 255
0.815493 -0.162212 0.555570 255 0 45 255
0.544895 -0.108387 -0.831470 255 0 45 255
0.906128 -0.180240 0.382683 255 0 45 255
0.375330 -0.074658 -0.923880 255 0 45 255
0.961940 -0.191342 0.195090 255 0 45 255
0.191342 -0.038061 -0.980785 255 0 45 255
0.980785 -0.195091 0.000000 255 0 45 255
0.191342 -0.038061 0.980785 255 0 45 255
0.961940 -0.191342 -0.195090 255 0 45 255
0.375331 -0.074658 0.923880 255 0 45 255
0.906128 -0.180240 -0.382683 255 0 45 255
0.544895 -0.108387 0.831470 255 0 45 255
0.180240 -0.074658 -0.980785 255 0 45 255
0.923880 -0.382684 0.000000 255 0 45 255
0.906127 -0.375331 -0.195090 255 0 45 255
0.180240 -0.074658 0.980785 255 0 45 255
0.353554 -0.146447 0.923880 255 0 45 255
0.853554 -0.353554 -0.382683 255 0 45 255
0.513280 -0.212608 0.831470 255 0 45 255
0.768178 -0.318190 -0.555570 255 0 45 255
0.653282 -0.270598 0.707107 255 0 45 255
0.653282 -0.270598 -0.707107 255 0 45 255
0.768178 -0.318190 0.555570 255 0 45 255
0.513280 -0.212608 -0.831470 255 0 45 255
0.853554 -0.353554 0.382683 255 0 45 255
0.353553 -0.146447 -0.923880 255 0 45 255
0.906127 -0.375331 0.195090 255 0 45 255
0.587938 -0.392848 -0.707107 255 0 45 255
0.461940 -0.308659 -0.831470 255 0 45 255
0.691342 -0.461940 0.555570 255 0 45 255
0.768178 -0.513280 0.382683 255 0 45 255
0.318190 -0.212608 -0.923880 255 0 45 255
0.815493 -0.544895 0.195090 255 0 45 255
0.162212 -0.108387 -0.980785 255 0 45 255
0.831470 -0.555571 0.000000 255 0 45 255
0.162212 -0.108387 0.980785 255 0 45 255
0.815493 -0.544895 -0.195090 255 0 45 255
0.318190 -0.212608 0.923880 255 0 45 255
0.768178 -0.513280 -0.382683 255 0 45 255
0.461940 -0.308659 0.831470 255 0 45 255
0.691342 -0.461940 -0.555570 255 0 45 255
0.587938 -0.392848 0.707107 255 0 45 255
0.137950 -0.137950 0.980785 255 0 45 255
0.270598 -0.270599 0.923880 255 0 45 255
0.693520 -0.693520 -0.195090 255 0 45 255
0.653282 -0.653282 -0.382683 255 0 45 255
0.392848 -0.392848 0.831470 255 0 45 255
0.587938 -0.587938 -0.555570 255 0 45 255
0.500000 -0.500000 0.707107 255 0 45 255
0.500000 -0.500000 -0.707107 255 0 45 255
0.587938 -0.587938 0.555570 255 0 45 255
0.392848 -0.392848 -0.831470 255 0 45 255
0.653282 -0.653282 0.382683 255 0 45 255
0.270598 -0.270598 -0.923880 255 0 45 255
0.693520 -0.693520 0.195090 255 0 45 255
0.137950 -0.137950 -0.980785 255 0 45 255
0.707107 -0.707107 0.000000 255 0 45 255
0.461940 -0.691342 0.555570 255 0 45 255
0.513280 -0.768178 0.382683 255 0 45 255
0.308658 -0.461940 -0.831470 255 0 45 255
0.212608 -0.318190 -0.923880 255 0 45 255
0.544895 -0.815493 0.195090 255 0 45 255
0.108386 -0.162212 -0.980785 255 0 45 255
0.555570 -0.831470 0.000000 255 0 45 255
0.108386 -0.162212 0.980785 255 0 45 255
0.544895 -0.815493 -0.195090 255 0 45 255
0.212608 -0.318190 0.923880 255 0 45 255
0.513280 -0.768178 -0.382683 255 0 45 255
0.308658 -0.461940 0.831470 255 0 45 255
0.461940 -0.691342 -0.555570 255 0 45 255
0.392848 -0.587938 0.707107 255 0 45 255
0.392848 -0.587938 -0.707107 255 0 45 255
0.375330 -0.906128 -0.195090 255 0 45 255
0.353553 -0.853554 -0.382683 255 0 45 255
0.146447 -0.353554 0.923880 255 0 45 255
0.212608 -0.513280 0.831470 255 0 45 255
0.318190 -0.768178 -0.555570 255 0 45 255
0.270598 -0.653282 0.707107 255 0 45 255
0.270598 -0.653282 -0.707107 255 0 45 255
0.318190 -0.768178 0.555570 255 0 45 255
0.212608 -0.513280 -0.831470 255 0 45 255
0.353553 -0.853554 0.382683 255 0 45 255
0.146447 -0.353554 -0.923880 255 0 45 255
0.375330 -0.906128 0.195090 255 0 45 255
0.074658 -0.180240 -0.980785 255 0 45 255
0.382683 -0.923880 0.000000 255 0 45 255
0.074658 -0.180240 0.980785 255 0 45 255
0.108386 -0.544895 -0.831470 255 0 45 255
0.074658 -0.375331 -0.923880 255 0 45 255
0.180240 -0.906128 0.382683 255 0 45 255
0.191342 -0.961940 0.195090 255 0 45 255
0.038060 -0.191342 -0.980785 255 0 45 255
0.195090 -0.980786 0.000000 255 0 45 255
0.038060 -0.191342 0.980785 255 0 45 255
0.191342 -0.961940 -0.195090 255 0 45 255
0.074658 -0.375331 0.923880 255 0 45 255
0.180240 -0.906128 -0.382683 255 0 45 255
0.108386 -0.544896 0.831470 255 0 45 255
0.162212 -0.815493 -0.555570 255 0 45 255
0.137950 -0.693520 0.707107 255 0 45 255
0.137950 -0.693520 -0.707107 255 0 45 255
0.162212 -0.815493 0.555570 255 0 45 255
0.000000 -0.382684 0.923880 255 0 45 255
0.000000 -0.555571 0.831470 255 0 45 255
0.000000 -0.923880 -0.382683 255 0 45 255
-0.000000 -0.831470 -0.555570 255 0 45 255
-0.000000 -0.707107 0.707107 255 0 45 255
-0.000000 -0.707107 -0.707107 255 0 45 255
-0.000000 -0.831470 0.555570 255 0 45 255
-0.000000 -0.555570 -0.831470 255 0 45 255
0.000000 -0.923880 0.382683 255 0 45 255
0.000000 -0.382684 -0.923880 255 0 45 255
-0.000000 -0.980785 0.195090 255 0 45 255
0.000000 -0.195091 -0.980785 255 0 45 255
-0.000000 -1.000000 0.000000 255 0 45 255
-0.000000 -0.195091 0.980785 255 0 45 255
-0.000000 -0.980785 -0.195090 255 0 45 255
-0.180240 -0.906128 0.382683 255 0 45 255
-0.191342 -0.961940 0.195090 255 0 45 255
-0.074658 -0.375331 -0.923880 255 0 45 255
-0.038060 -0.191342 -0.980785 255 0 45 255
-0.195090 -0.980786 0.000000 255 0 45 255
-0.038060 -0.191342 0.980785 255 0 45 255
-0.191342 -0.961940 -0.195090 255 0 45 255
-0.074658 -0.375331 0.923880 255 0 45 255
-0.180240 -0.906128 -0.382683 255 0 45 255
-0.108386 -0.544896 0.831470 255 0 45 255
-0.162212 -0.815493 -0.555570 255 0 45 255
-0.137950 -0.693520 0.707107 255 0 45 255
-0.137950 -0.693520 -0.707107 255 0 45 255
-0.162212 -0.815493 0.555570 255 0 45 255
-0.108386 -0.544895 -0.831470 255 0 45 255
-0.353553 -0.853554 -0.382683 255 0 45 255
-0.318190 -0.768178 -0.555570 255 0 45 255
-0.212608 -0.513280 0.831470 255 0 45 255
-0.270598 -0.653282 0.707107 255 0 45 255
-0.270598 -0.653282 -0.707107 255 0 45 255
-0.318190 -0.768178 0.555570 255 0 45 255
-0.212608 -0.513280 -0.831470 255 0 45 255
-0.353553 -0.853554 0.382683 255 0 45 255
-0.146447 -0.353554 -0.923880 255 0 45 255
-0.375330 -0.906127 0.195090 255 0 45 255
-0.074658 -0.180240 -0.980785 255 0 45 255
-0.382684 -0.923880 0.000000 255 0 45 255
-0.074658 -0.180240 0.980785 255 0 45 255
-0.375330 -0.906127 -0.195090 255 1 45 255
-0.146447 -0.353554 0.923880 255 0 45 255
-0.212607 -0.318190 -0.923880 255 0 45 255
-0.108386 -0.162212 -0.980785 255 0 45 255
-0.544895 -0.815493 0.195090 255 0 45 255
-0.555570 -0.831470 0.000000 255 0 45 255
-0.108386 -0.162212 0.980785 255 0 45 255
-0.544895 -0.815493 -0.195090 255 0 45 255
-0.212608 -0.318190 0.923880 255 0 45 255
-0.513280 -0.768178 -0.382683 255 0 45 255
-0.308658 -0.461940 0.831470 255 0 45 255
-0.461940 -0.691342 -0.555570 255 0 45 255
-0.392847 -0.587938 0.707107 255 0 45 255
-0.392847 -0.587938 -0.707107 255 0 45 255
-0.461940 -0.691342 0.555570 255 0 45 255
-0.308658 -0.461940 -0.831470 255 0 45 255
-0.513280 -0.768178 0.382683 255 0 45 255
-0.587938 -0.587938 -0.555570 255 0 45 255
-0.500000 -0.500000 -0.707107 255 0 45 255
-0.500000 -0.500000 0.707107 255 0 45 255
-0.587938 -0.587938 0.555570 255 0 45 255
-0.392847 -0.392848 -0.831470 255 0 45 255
-0.653281 -0.653282 0.382683 255 0 45 255
-0.270598 -0.270598 -0.923880 255 0 45 255
-0.693520 -0.693520 0.195090 255 0 45 255
-0.137950 -0.137950 -0.980785 255 0 45 255
-0.707107 -0.707107 0.000000 255 0 45 255
-0.137950 -0.137950 0.980785 255 0 45 255
-0.693520 -0.693520 -0.195090 255 1 45 255
-0.270598 -0.270598 0.923880 255 0 45 255
-0.653281 -0.653282 -0.382683 255 0 45 255
-0.392848 -0.392848 0.831470 255 0 45 255
-0.162212 -0.108387 0.980785 255 0 45 255
-0.162212 -0.108387 -0.980785 255 0 45 255
-0.831470 -0.555570 0.000000 255 0 45 255
-0.815493 -0.544895 -0.195090 255 2 45 255
-0.318190 -0.212608 0.923880 255 0 45 255
-0.768178 -0.513280 -0.382683 255 0 45 255
-0.461940 -0.308659 0.831470 255 0 45 255
-0.691342 -0.461940 -0.555570 255 0 45 255
-0.587938 -0.392848 0.707107 255 0 45 255
-0.587938 -0.392848 -0.707107 255 0 45 255
-0.691342 -0.461940 0.555570 255 0 45 255
-0.461940 -0.308658 -0.831470 255 0 45 255
-0.768178 -0.513280 0.382683 255 0 45 255
-0.318190 -0.212608 -0.923880 255 0 45 255
-0.815493 -0.544895 0.195090 255 0 45 255
-0.653281 -0.270598 0.707107 255 0 45 255
-0.768177 -0.318190 0.555570 255 0 45 255
-0.653281 -0.270598 -0.707107 255 0 45 255
-0.513280 -0.212608 -0.831470 255 0 45 255
-0.853553 -0.353554 0.382683 255 0 45 255
-0.353553 -0.146447 -0.923880 255 0 45 255
-0.906127 -0.375330 0.195090 255 0 45 255
-0.180240 -0.074658 -0.980785 255 0 45 255
-0.923880 -0.382684 0.000000 255 0 45 255
-0.180240 -0.074658 0.980785 255 0 45 255
-0.906127 -0.375330 -0.195090 255 1 45 255
-0.353553 -0.146447 0.923880 255 0 45 255
-0.853553 -0.353554 -0.382683 255 0 45 255
-0.513280 -0.212608 0.831470 255 0 45 255
-0.768177 -0.318190 -0.555570 255 0 45 255
-0.980785 -0.195090 0.000000 255 0 45 255
-0.961939 -0.191342 -0.195090 255 0 45 255
-0.191342 -0.038061 0.980785 255 0 45 255
-0.375330 -0.074658 0.923880 255 0 45 255
-0.906127 -0.180240 -0.382683 255 0 45 255
-0.544895 -0.108387 0.831470 255 0 45 255
-0.815493 -0.162212 -0.555570 255 0 45 255
-0.693520 -0.137950 0.707107 255 0 45 255
-0.693520 -0.137950 -0.707107 255 0 45 255
-0.815493 -0.162212 0.555570 255 0 45 255
-0.544895 -0.108387 -0.831470 255 0 45 255
-0.906127 -0.180240 0.382683 255 0 45 255
-0.375330 -0.074658 -0.923880 255 0 45 255
-0.961939 -0.191342 0.195090 255 0 45 255
-0.191342 -0.038061 -0.980785 255 0 45 255
-0.707107 -0.003594 -0.707107 255 0 45 255
-0.555570 -0.003594 -0.831470 255 0 45 255
-0.831469 -0.003594 0.555570 255 0 45 255
-0.923879 -0.003594 0.382683 255 0 45 255
-0.382683 -0.003594 -0.923880 255 0 45 255
-0.980785 -0.003594 0.195090 255 0 45 255
-0.195090 -0.003594 -0.980785 255 0 45 255
-1.000000 -0.003594 0.000000 255 0 45 255
-0.195090 -0.003594 0.980785 255 0 45 255
-0.980785 -0.003594 -0.195090 255 0 45 255
-0.382683 -0.003594 0.923880 255 0 45 255
-0.923879 -0.003594 -0.382683 255 0 45 255
-0.555570 -0.003594 0.831470 255 0 45 255
-0.831469 -0.003594 -0.555570 255 0 45 255
-0.707107 -0.003594 0.707107 255 0 45 255
-0.382337 0.003466 0.923880 255 0 45 255
-0.194744 0.003466 0.980785 255 0 45 255
-0.191342 0.038060 0.980785 255 0 45 255
-0.375330 0.074658 0.923880 255 0 45 255
-0.923533 0.003466 -0.382683 255 0 45 255
-0.980438 0.003466 -0.195090 255 0 45 255
-0.961939 0.191342 -0.195090 255 0 45 255
-0.906127 0.180240 -0.382683 255 0 45 255
-0.555224 0.003466 0.831470 255 0 45 255
-0.544895 0.108386 0.831470 255 0 45 255
-0.831123 0.003466 -0.555570 255 0 45 255
-0.815493 0.162211 -0.555570 255 0 45 255
-0.706760 0.003466 0.707107 255 0 45 255
-0.693520 0.137949 0.707107 255 0 45 255
-0.706760 0.003466 -0.707107 255 0 45 255
-0.693520 0.137949 -0.707107 255 0 45 255
-0.831123 0.003466 0.555570 255 0 45 255
-0.815493 0.162211 0.555570 255 0 45 255
-0.555223 0.003466 -0.831470 255 0 45 255
-0.544895 0.108386 -0.831470 255 0 45 255
-0.923533 0.003466 0.382683 255 0 45 255
-0.906127 0.180240 0.382683 255 0 45 255
-0.382337 0.003466 -0.923880 255 0 45 255
-0.375330 0.074658 -0.923880 255 0 45 255
-0.980438 0.003466 0.195090 255 0 45 255
-0.961939 0.191342 0.195090 255 0 45 255
-0.194744 0.003466 -0.980785 255 0 45 255
-0.191342 0.038060 -0.980785 255 0 45 255
-0.999653 0.003466 0.000000 255 0 45 255
-0.980785 0.195090 0.000000 255 0 45 255
-0.768177 0.318189 0.555570 255 0 45 255
-0.853553 0.353553 0.382683 255 0 45 255
-0.513280 0.212607 -0.831470 255 0 45 255
-0.353553 0.146446 -0.923880 255 0 45 255
-0.906127 0.375330 0.195090 255 0 45 255
-0.180240 0.074657 -0.980785 255 0 45 255
-0.923879 0.382683 0.000000 255 0 45 255
-0.180240 0.074658 0.980785 255 0 45 255
-0.906127 0.375330 -0.195090 255 0 45 255
-0.353553 0.146446 0.923880 255 0 45 255
-0.853553 0.353553 -0.382683 255 0 45 255
-0.513280 0.212607 0.831470 255 0 45 255
-0.768177 0.318189 -0.555570 255 0 45 255
-0.653281 0.270598 0.707107 255 0 45 255
-0.653281 0.270598 -0.707107 255 0 45 255
-0.815493 0.544895 -0.195090 255 0 45 255
-0.768178 0.513280 -0.382683 255 0 45 255
-0.318190 0.212607 0.923880 255 0 45 255
-0.461940 0.308658 0.831470 255 0 45 255
-0.691341 0.461939 -0.555570 255 0 45 255
-0.587938 0.392847 0.707107 255 0 45 255
-0.587938 0.392847 -0.707107 255 0 45 255
-0.691341 0.461939 0.555570 255 0 45 255
-0.461940 0.308658 -0.831470 255 0 45 255
-0.768178 0.513280 0.382683 255 0 45 255
-0.318189 0.212607 -0.923880 255 0 45 255
-0.815493 0.544895 0.195090 255 1 45 255
-0.162212 0.108386 -0.980785 255 0 45 255
-0.831469 0.555570 0.000000 255 0 45 255
-0.162212 0.108386 0.980785 255 0 45 255
-0.392847 0.392847 -0.831470 255 0 45 255
-0.270598 0.270598 -0.923880 255 0 45 255
-0.653281 0.653281 0.382683 255 0 45 255
-0.693519 0.693519 0.195090 255 0 45 255
-0.137950 0.137949 -0.980785 255 0 45 255
-0.707106 0.707106 0.000000 255 0 45 255
-0.137950 0.137949 0.980785 255 0 45 255
-0.693519 0.693519 -0.195090 255 0 45 255
-0.270598 0.270598 0.923880 255 0 45 255
-0.653281 0.653281 -0.382683 255 0 45 255
-0.392847 0.392847 0.831470 255 0 45 255
-0.587937 0.587937 -0.555570 255 0 45 255
-0.500000 0.500000 0.707107 255 0 45 255
-0.500000 0.500000 -0.707107 255 0 45 255
-0.587937 0.587937 0.555570 255 0 45 255
-0.513280 0.768177 -0.382683 255 0 45 255
-0.461939 0.691341 -0.555570 255 0 45 255
-0.308658 0.461939 0.831470 255 0 45 255
-0.392847 0.587937 0.707107 255 0 45 255
-0.392847 0.587937 -0.707107 255 0 45 255
-0.461939 0.691341 0.555570 255 0 45 255
-0.308658 0.461939 -0.831470 255 0 45 255
-0.513280 0.768177 0.382683 255 0 45 255
-0.212607 0.318189 -0.923880 255 0 45 255
-0.544895 0.815492 0.195090 255 0 45 255
-0.108386 0.162211 -0.980785 255 0 45 255
-0.555570 0.831469 0.000000 255 0 45 255
-0.108386 0.162211 0.980785 255 0 45 255
-0.544895 0.815492 -0.195090 255 0 45 255
-0.212607 0.318189 0.923880 255 0 45 255
-0.146446 0.353553 -0.923880 255 0 45 255
-0.074658 0.180240 -0.980785 255 0 45 255
-0.375330 0.906127 0.195090 255 0 45 255
-0.382683 0.923879 0.000000 255 0 45 255
-0.074658 0.180240 0.980785 255 0 45 255
-0.375330 0.906127 -0.195090 255 0 45 255
-0.146447 0.353553 0.923880 255 0 45 255
-0.353553 0.853553 -0.382683 255 0 45 255
-0.212607 0.513280 0.831470 255 0 45 255
-0.318189 0.768177 -0.555570 255 0 45 255
-0.270598 0.653281 0.707107 255 0 45 255
-0.270598 0.653281 -0.707107 255 0 45 255
-0.318189 0.768177 0.555570 255 0 45 255
-0.212607 0.513279 -0.831470 255 0 45 255
-0.353553 0.853553 0.382683 255 0 45 255
-0.108386 0.544895 0.831470 255 0 45 255
-0.137950 0.693520 0.707107 255 1 45 255
-0.162211 0.815492 -0.555570 255 0 45 255
-0.137950 0.693520 -0.707107 255 0 45 255
-0.162211 0.815492 0.555570 255 0 45 255
-0.108386 0.544895 -0.831470 255 0 45 255
-0.180240 0.906127 0.382683 255 0 45 255
-0.074658 0.375330 -0.923880 255 0 45 255
-0.191341 0.961939 0.195090 255 0 45 255
-0.038060 0.191341 -0.980785 255 0 45 255
-0.195090 0.980785 0.000000 255 0 45 255
-0.038060 0.191342 0.980785 255 0 45 255
-0.191341 0.961939 -0.195090 255 0 45 255
-0.074658 0.375330 0.923880 255 0 45 255
-0.180240 0.906127 -0.382683 255 0 45 255
4 0 1 2 3
4 4 5 6 7
3 8 9 10
3 11 0 3
4 12 4 7 13
4 14 8 10 15
4 16 12 13 17
4 18 14 15 19
4 20 16 17 21
4 22 18 19 23
4 24 20 21 25
4 26 22 23 27
4 28 24 25 29
4 30 26 27 31
4 1 28 29 2
4 5 30 31 6
4 2 29 32 33
4 6 31 34 35
4 3 2 33 36
4 7 6 35 37
3 10 9 38
3 11 3 36
4 13 7 37 39
4 15 10 38 40
4 17 13 39 41
4 19 15 40 42
4 21 17 41 43
4 23 19 42 44
4 25 21 43 45
4 27 23 44 46
4 29 25 45 32
4 31 27 46 34
4 42 40 47 48
4 43 41 49 50
4 44 42 48 51
4 45 43 50 52
4 46 44 51 53
4 32 45 52 54
4 34 46 53 55
4 33 32 54 56
4 35 34 55 57
4 36 33 56 58
4 37 35 57 59
3 38 9 60
3 11 36 58
4 39 37 59 61
4 40 38 60 47
4 41 39 61 49
4 57 55 62 63
4 58 56 64 65
4 59 57 63 66
3 60 9 67
3 11 58 65
4 61 59 66 68
4 47 60 67 69
4 49 61 68 70
4 48 47 69 71
4 50 49 70 72
4 51 48 71 73
4 52 50 72 74
4 53 51 73 75
4 54 52 74 76
4 55 53 75 62
4 56 54 76 64
4 72 70 77 78
4 73 71 79 80
4 74 72 78 81
4 75 73 80 82
4 76 74 81 83
4 62 75 82 84
4 64 76 83 85
4 63 62 84 86
4 65 64 85 87
4 66 63 86 88
3 67 9 89
3 11 65 87
4 68 66 88 90
4 69 67 89 91
4 70 68 90 77
4 71 69 91 79
4 87 85 92 93
4 88 86 94 95
3 89 9 96
3 11 87 93
4 90 88 95 97
4 91 89 96 98
4 77 90 97 99
4 79 91 98 100
4 78 77 99 101
4 80 79 100 102
4 81 78 101 103
4 82 80 102 104
4 83 81 103 105
4 84 82 104 106
4 85 83 105 92
4 86 84 106 94
4 102 100 107 108
4 103 101 109 110
4 104 102 108 111
4 105 103 110 112
4 106 104 111 113
4 92 105 112 114
4 94 106 113 115
4 93 92 114 116
4 95 94 115 117
3 96 9 118
3 11 93 116
4 97 95 117 119
4 98 96 118 120
4 99 97 119 121
4 100 98 120 107
4 101 99 121 109
4 117 115 122 123
3 118 9 124
3 11 116 125
4 119 117 123 126
4 120 118 124 127
4 121 119 126 128
4 107 120 127 129
4 109 121 128 130
4 108 107 129 131
4 110 109 130 132
4 111 108 131 133
4 112 110 132 134
4 113 111 133 135
4 114 112 134 136
4 115 113 135 122
4 116 114 136 125
4 132 130 137 138
4 133 131 139 140
4 134 132 138 141
4 135 133 140 142
4 136 134 141 143
4 122 135 142 144
4 125 136 143 145
4 123 122 144 146
3 124 9 147
3 11 125 145
4 126 123 146 148
4 127 124 147 149
4 128 126 148 150
4 129 127 149 151
4 130 128 150 137
4 131 129 151 139
3 11 145 152
4 148 146 153 154
4 149 147 155 156
4 150 148 154 157
4 151 149 156 158
4 137 150 157 159
4 139 151 158 160
4 138 137 159 161
4 140 139 160 162
4 141 138 161 163
4 142 140 162 164
4 143 141 163 165
4 144 142 164 166
4 145 143 165 152
4 146 144 166 153
3 147 9 155
4 163 161 167 168
4 164 162 169 170
4 165 163 168 171
4 166 164 170 172
4 152 165 171 173
4 153 166 172 174
3 155 9 175
3 11 152 173
4 154 153 174 176
4 156 155 175 177
4 157 154 176 178
4 158 156 177 179
4 159 157 178 180
4 160 158 179 181
4 161 159 180 167
4 162 160 181 169
4 177 175 182 183
4 178 176 184 185
4 179 177 183 186
4 180 178 185 187
4 181 179 186 188
4 167 180 187 189
4 169 181 188 190
4 168 167 189 191
4 170 169 190 192
4 171 168 191 193
4 172 170 192 194
4 173 171 193 195
4 174 172 194 196
3 175 9 182
3 11 173 195
4 176 174 196 184
4 192 190 197 198
4 193 191 199 200
4 194 192 198 201
4 195 193 200 202
4 196 194 201 203
3 182 9 204
3 11 195 202
4 184 196 203 205
4 183 182 204 206
4 185 184 205 207
4 186 183 206 208
4 187 185 207 209
4 188 186 208 210
4 189 187 209 211
4 190 188 210 197
4 191 189 211 199
4 207 205 212 213
4 208 206 214 215
4 209 207 213 216
4 210 208 215 217
4 211 209 216 218
4 197 210 217 219
4 199 211 218 220
4 198 197 219 221
4 200 199 220 222
4 201 198 221 223
4 202 200 222 224
4 203 201 223 225
3 204 9 226
3 11 202 224
4 205 203 225 212
4 206 204 226 214
4 222 220 227 228
4 223 221 229 230
4 224 222 228 231
4 225 223 230 232
3 226 9 233
3 11 224 231
4 212 225 232 234
4 214 226 233 235
4 213 212 234 236
4 215 214 235 237
4 216 213 236 238
4 217 215 237 239
4 218 216 238 240
4 219 217 239 241
4 220 218 240 227
4 221 219 241 229
4 237 235 242 243
4 238 236 244 245
4 239 237 243 246
4 240 238 245 247
4 241 239 246 248
4 227 240 247 249
4 229 241 248 250
4 228 227 249 251
4 230 229 250 252
4 231 228 251 253
4 232 230 252 254
3 233 9 255
3 11 231 253
4 234 232 254 256
4 235 233 255 242
4 236 234 256 244
4 252 250 257 258
4 253 251 259 260
4 254 252 258 261
3 255 9 262
3 11 253 260
4 256 254 261 263
4 242 255 262 264
4 244 256 263 265
4 243 242 264 266
4 245 244 265 267
4 246 243 266 268
4 247 245 267 269
4 248 246 268 270
4 249 247 269 271
4 250 248 270 257
4 251 249 271 259
4 267 265 272 273
4 268 266 274 275
4 269 267 273 276
4 270 268 275 277
4 271 269 276 278
4 257 270 277 279
4 259 271 278 280
4 258 257 279 281
4 260 259 280 282
4 261 258 281 283
3 262 9 284
3 11 260 282
4 263 261 283 285
4 264 262 284 286
4 265 263 285 272
4 266 264 286 274
4 282 280 287 288
4 283 281 289 290
3 284 9 291
3 11 282 288
4 285 283 290 292
4 286 284 291 293
4 272 285 292 294
4 274 286 293 295
4 273 272 294 296
4 275 274 295 297
4 276 273 296 298
4 277 275 297 299
4 278 276 298 300
4 279 277 299 301
4 280 278 300 287
4 281 279 301 289
4 298 296 302 303
4 299 297 304 305
4 300 298 303 306
4 301 299 305 307
4 287 300 306 308
4 289 301 307 309
4 288 287 308 310
4 290 289 309 311
3 291 9 312
3 11 288 310
4 292 290 311 313
4 293 291 312 314
4 294 292 313 315
4 295 293 314 316
4 296 294 315 302
4 297 295 316 304
3 312 9 317
3 11 310 318
4 313 311 319 320
4 314 312 317 321
4 315 313 320 322
4 316 314 321 323
4 302 315 322 324
4 304 316 323 325
4 303 302 324 326
4 305 304 325 327
4 306 303 326 328
4 307 305 327 329
4 308 306 328 330
4 309 307 329 331
4 310 308 330 318
4 311 309 331 319
4 327 325 332 333
4 328 326 334 335
4 329 327 333 336
4 330 328 335 337
4 331 329 336 338
4 318 330 337 339
4 319 331 338 340
3 317 9 341
3 11 318 339
4 320 319 340 342
4 321 317 341 343
4 322 320 342 344
4 323 321 343 345
4 324 322 344 346
4 325 323 345 332
4 326 324 346 334
4 342 340 347 348
4 343 341 349 350
4 344 342 348 351
4 345 343 350 352
4 346 344 351 353
4 332 345 352 354
4 334 346 353 355
4 333 332 354 356
4 335 334 355 357
4 336 333 356 358
4 337 335 357 359
4 338 336 358 360
4 339 337 359 361
4 340 338 360 347
3 341 9 349
3 11 339 361
4 357 355 362 363
4 358 356 364 365
4 359 357 363 366
4 360 358 365 367
4 361 359 366 368
4 347 360 367 369
3 349 9 370
3 11 361 368
4 348 347 369 371
4 350 349 370 372
4 351 348 371 373
4 352 350 372 374
4 353 351 373 375
4 354 352 374 376
4 355 353 375 362
4 356 354 376 364
4 377 378 379 380
4 381 382 383 384
4 385 377 380 386
4 387 381 384 388
4 389 385 386 390
4 391 387 388 392
4 393 389 390 394
4 395 391 392 396
4 397 393 394 398
4 399 395 396 400
4 401 397 398 402
4 403 399 400 404
4 405 401 402 406
3 378 9 379
3 11 403 404
4 382 405 406 383
4 398 394 407 408
4 400 396 409 410
4 402 398 408 411
4 404 400 410 412
4 406 402 411 413
3 379 9 414
3 11 404 412
4 383 406 413 415
4 380 379 414 416
4 384 383 415 417
4 386 380 416 418
4 388 384 417 419
4 390 386 418 420
4 392 388 419 421
4 394 390 420 407
4 396 392 421 409
4 417 415 422 423
4 418 416 424 425
4 419 417 423 426
4 420 418 425 427
4 421 419 426 428
4 407 420 427 429
4 409 421 428 430
4 408 407 429 431
4 410 409 430 432
4 411 408 431 433
4 412 410 432 434
4 413 411 433 435
3 414 9 436
3 11 412 434
4 415 413 435 422
4 416 414 436 424
4 432 430 437 438
4 433 431 439 440
4 434 432 438 441
4 435 433 440 442
3 436 9 443
3 11 434 441
4 422 435 442 444
4 424 436 443 445
4 423 422 444 446
4 425 424 445 447
4 426 423 446 448
4 427 425 447 449
4 428 426 448 450
4 429 427 449 451
4 430 428 450 437
4 431 429 451 439
4 448 446 452 453
4 449 447 454 455
4 450 448 453 456
4 451 449 455 457
4 437 450 456 458
4 439 451 457 459
4 438 437 458 460
4 440 439 459 461
4 441 438 460 462
4 442 440 461 463
3 443 9 464
3 11 441 462
4 444 442 463 465
4 445 443 464 466
4 446 444 465 452
4 447 445 466 454
4 462 460 467 468
4 463 461 469 470
3 464 9 471
3 11 462 468
4 465 463 470 472
4 466 464 471 473
4 452 465 472 474
4 454 466 473 475
4 453 452 474 476
4 455 454 475 477
4 456 453 476 478
4 457 455 477 479
4 458 456 478 480
4 459 457 479 481
4 460 458 480 467
4 461 459 481 469
4 477 475 482 483
4 478 476 484 485
4 479 477 483 486
4 480 478 485 487
4 481 479 486 488
4 467 480 487 489
4 469 481 488 490
4 468 467 489 491
4 470 469 490 492
3 471 9 493
3 11 468 491
4 472 470 492 494
4 473 471 493 495
4 474 472 494 496
4 475 473 495 482
4 476 474 496 484
4 492 490 5 4
3 493 9 8
3 11 491 0
4 494 492 4 12
4 495 493 8 14
4 496 494 12 16
4 482 495 14 18
4 484 496 16 20
4 483 482 18 22
4 485 484 20 24
4 486 483 22 26
4 487 485 24 28
4 488 486 26 30
4 489 487 28 1
4 490 488 30 5
4 491 489 1 0
